<svg width="40" height="40" viewBox="0 0 40 40" fill="none" xmlns="http://www.w3.org/2000/svg">
<circle cx="20" cy="20" r="20" fill="#0D8AF0"/>
<mask id="mask0_127_32" style="mask-type:alpha" maskUnits="userSpaceOnUse" x="0" y="0" width="40" height="40">
<circle cx="20" cy="20" r="20" fill="#0D8AF0"/>
</mask>
<g mask="url(#mask0_127_32)">
<path d="M3 15C-2.2 15 -3.66667 27.3333 -5 29L4 50.5L49 36V19.5C46.5 19.3333 37.4 9.6 33 12C27.5 15 27 23.5 20.5 23.5C14 23.5 9.5 15 3 15Z" fill="url(#paint0_linear_127_32)"/>
</g>
<path d="M13 18.4667V18.4667C15.3564 18.4667 17.2667 20.3769 17.2667 22.7333V31.2667C17.2667 32.4449 16.3115 33.4 15.1333 33.4V33.4C13.9551 33.4 13 32.4449 13 31.2667V18.4667Z" fill="#F7F7F7"/>
<path d="M27 19C27 22.3137 24.3137 25 21 25C17.6863 25 15 22.3137 15 19C15 15.6863 17.6863 13 21 13C24.3137 13 27 15.6863 27 19Z" stroke="white" stroke-width="4"/>
<circle cx="20.9984" cy="19" r="1.6" fill="white"/>
<defs>
<linearGradient id="paint0_linear_127_32" x1="22" y1="19.46" x2="22" y2="50.5" gradientUnits="userSpaceOnUse">
<stop stop-color="#0D8AF0"/>
<stop offset="1" stop-color="#D200D9"/>
</linearGradient>
</defs>
</svg>
